<!-- icon666.com - MILLIONS OF FREE VECTOR ICONS --><svg clip-rule="evenodd" fill-rule="evenodd" image-rendering="optimizeQuality" shape-rendering="geometricPrecision" text-rendering="geometricPrecision" viewBox="0 0 512 512" xmlns="http://www.w3.org/2000/svg"><g id="Layer_x0020_1"><path d="m455 470c-132 0-265 0-398 0v34c0 10-15 10-15 0v-34h-35c-9 0-9-15 0-15h35c0-91 0-289 0-398h-35c-9 0-9-15 0-15h35v-35c0-9 15-9 15 0v35h398v-35c0-9 15-9 15 0v35h35c9 0 9 15 0 15h-35v398h35c9 0 9 15 0 15h-35v34c0 10-15 10-15 0zm-347-15v-51h-51v51zm0-66v-55h-51v55zm0-70v-56h-51v56zm0-71v-55h-51v55zm0-70v-56h-51v56zm0-71v-50h-51v50zm15-50v50h55v-50zm0 65v56h55v-56zm0 71v55h55v-55zm0 70v56h55v-56zm0 71v55h55v-55zm0 70v51h55v-51zm70-347v50h56v-50zm0 65v56h56v-56zm0 71v55h56v-55zm0 70v56h56v-56zm0 71v55h56v-55zm0 70v51h56v-51zm70-347v50h56v-50zm0 65v56h56v-56zm0 71v55h56v-55zm0 70v56h56v-56zm0 71v55h56v-55zm0 70v51h56v-51zm71-347v50h56v-50zm0 65v56h56v-56zm0 71v55h56v-55zm0 70v56h56v-56zm0 71v55h56v-55zm0 70v51h56v-51zm71-347v50h50v-50zm0 65v56h50v-56zm0 71v55h50v-55zm0 70v56h50v-56zm0 71v55h50v-55zm0 70v51h50v-51z" fill="#52abb3"></path><g fill="#aadde3"><path d="m405 107h50v-50h-50z"></path><path d="m390 107v-50h-56v50z"></path><path d="m319 107v-50h-56v50z"></path><path d="m249 107v-50h-56v50z"></path><path d="m178 107v-50h-55v50z"></path><path d="m108 107v-50h-51v50z"></path><path d="m108 122h-51v56h51z"></path><path d="m123 122v56h55v-56z"></path><path d="m193 122v56h56v-56z"></path><path d="m263 122v56h56v-56z"></path><path d="m334 122v56h56v-56z"></path><path d="m405 122v56h50v-56z"></path><path d="m455 193h-50v55h50z"></path><path d="m455 263h-50v56h50z"></path><path d="m455 334h-50v55h50z"></path><path d="m455 404h-50v51h50z"></path><path d="m390 455v-51h-56v51z"></path><path d="m334 389h56v-55h-56z"></path><path d="m334 319h56v-56h-56z"></path><path d="m334 248h56v-55h-56z"></path></g><path d="m319 248v-55h-56v55z" fill="#fefefe"></path><path d="m319 263h-56v56h56z" fill="#fefefe"></path><path d="m319 334h-56v55h56z" fill="#aadde3"></path><path d="m319 404h-56v51h56z" fill="#aadde3"></path><path d="m249 455v-51h-56v51z" fill="#aadde3"></path><path d="m193 389h56v-55h-56z" fill="#aadde3"></path><path d="m193 319h56v-56h-56z" fill="#fefefe"></path><path d="m193 248h56v-55h-56z" fill="#fefefe"></path><path d="m178 248v-55h-55v55z" fill="#aadde3"></path><path d="m178 263h-55v56h55z" fill="#aadde3"></path><path d="m178 334h-55v55h55z" fill="#aadde3"></path><path d="m178 404h-55v51h55z" fill="#aadde3"></path><path d="m108 455v-51h-51v51z" fill="#aadde3"></path><path d="m57 389h51v-55h-51z" fill="#aadde3"></path><path d="m57 319h51v-56h-51z" fill="#aadde3"></path><path d="m57 248h51v-55h-51z" fill="#aadde3"></path></g></svg>